<svg width="44" height="46" viewBox="0 0 44 46" fill="none" xmlns="http://www.w3.org/2000/svg">
<path d="M21.7778 30.3333C13.8964 30.3333 6.88748 34.0749 2.42525 39.8813C1.46486 41.1309 0.984666 41.7558 1.00037 42.6002C1.01251 43.2527 1.4292 44.0757 1.95131 44.4786C2.62711 45 3.56362 45 5.43662 45H38.1189C39.9919 45 40.9284 45 41.6042 44.4786C42.1264 44.0757 42.543 43.2527 42.5552 42.6002C42.5709 41.7558 42.0907 41.1309 41.1303 39.8813C36.6681 34.0749 29.6592 30.3333 21.7778 30.3333Z" stroke="white" stroke-opacity="0.5" stroke-width="2" stroke-linecap="round" stroke-linejoin="round"/>
<path d="M21.7778 23C27.9567 23 32.9656 18.0751 32.9656 12C32.9656 5.92487 27.9567 1 21.7778 1C15.5989 1 10.5899 5.92487 10.5899 12C10.5899 18.0751 15.5989 23 21.7778 23Z" stroke="white" stroke-opacity="0.5" stroke-width="2" stroke-linecap="round" stroke-linejoin="round"/>
</svg>
