<svg width="42" height="46" viewBox="0 0 42 46" fill="none" xmlns="http://www.w3.org/2000/svg">
<path d="M41 14.2H1M29.8889 1V7.6M12.1111 1V7.6M21 36.2V23M14.3333 29.6H27.6667M11.6667 45H30.3333C34.067 45 35.9339 45 37.3599 44.2806C38.6144 43.6479 39.6342 42.6382 40.2734 41.3963C41 39.9845 41 38.1363 41 34.44V15.96C41 12.2637 41 10.4155 40.2734 9.00366C39.6342 7.76179 38.6144 6.75212 37.3599 6.11936C35.9339 5.4 34.067 5.4 30.3333 5.4H11.6667C7.93298 5.4 6.06614 5.4 4.64006 6.11936C3.38565 6.75212 2.36578 7.76179 1.72662 9.00366C1 10.4155 1 12.2637 1 15.96V34.44C1 38.1363 1 39.9845 1.72662 41.3963C2.36578 42.6382 3.38565 43.6479 4.64006 44.2806C6.06614 45 7.93298 45 11.6667 45Z" stroke="white" stroke-opacity="0.5" stroke-width="2" stroke-linecap="round" stroke-linejoin="round"/>
</svg>
