<svg width="49" height="46" viewBox="0 0 49 46" fill="none" xmlns="http://www.w3.org/2000/svg">
<path d="M24.1579 33.4211C24.1579 39.8159 29.342 45 35.7368 45C42.1317 45 47.3158 39.8159 47.3158 33.4211C47.3158 27.0262 42.1317 21.8421 35.7368 21.8421C29.342 21.8421 24.1579 27.0262 24.1579 33.4211ZM24.1579 33.4211C24.1579 30.8139 25.0196 28.408 26.4737 26.4726V5.63158M24.1579 33.4211C24.1579 35.3324 24.621 37.1356 25.4411 38.7245C23.4902 40.3725 18.9841 41.5263 13.7368 41.5263C6.70248 41.5263 1 39.4527 1 36.8947V5.63158M26.4737 5.63158C26.4737 8.18953 20.7712 10.2632 13.7368 10.2632C6.70248 10.2632 1 8.18953 1 5.63158M26.4737 5.63158C26.4737 3.07363 20.7712 1 13.7368 1C6.70248 1 1 3.07363 1 5.63158M1 26.4737C1 29.0316 6.70248 31.1053 13.7368 31.1053C18.8061 31.1053 23.1837 30.0284 25.2339 28.4694M26.4737 16.0526C26.4737 18.6106 20.7712 20.6842 13.7368 20.6842C6.70248 20.6842 1 18.6106 1 16.0526" stroke="white" stroke-opacity="0.5" stroke-width="2" stroke-linecap="round" stroke-linejoin="round"/>
</svg>
