<!-- icon666.com - MILLIONS OF FREE VECTOR ICONS --><svg version="1.1" id="Capa_1" xmlns="http://www.w3.org/2000/svg" xmlns:xlink="http://www.w3.org/1999/xlink" x="0px" y="0px" viewBox="0 0 512 512" style="enable-background:new 0 0 512 512;" xml:space="preserve"><g><g><g><path d="M450.56,35.84H61.44c-14.131,0-25.6,11.469-25.6,25.6v280.064c0,14.131,11.469,25.6,25.6,25.6h389.12 c14.131,0,25.6-11.469,25.6-25.6V61.44C476.16,47.309,464.691,35.84,450.56,35.84z M465.92,341.504 c0,8.499-6.861,15.36-15.36,15.36H61.44c-8.499,0-15.36-6.861-15.36-15.36V61.44c0-8.499,6.861-15.36,15.36-15.36h389.12 c8.499,0,15.36,6.861,15.36,15.36V341.504z"></path><path d="M476.16,0H35.84C16.077,0,0,16.077,0,35.84v331.264c0,19.763,16.077,35.84,35.84,35.84h147.456h6.554 c11.776,0,21.402,9.626,21.402,21.402v13.824c0,9.626-7.885,17.51-17.51,17.51h-25.498c-22.63,0-40.96,18.33-40.96,40.96v10.24 c0,2.867,2.253,5.12,5.12,5.12h247.296c2.867,0,5.12-2.253,5.12-5.12v-10.24c0-22.63-18.33-40.96-40.96-40.96h-18.534h-6.963 c-9.626,0-17.51-7.885-17.51-17.51v-13.824c0-11.776,9.626-21.402,21.402-21.402H476.16c19.763,0,35.84-16.077,35.84-35.84V35.84 C512,16.077,495.923,0,476.16,0z M501.76,367.104c0,14.131-11.469,25.6-25.6,25.6H322.253c-17.408,0-31.642,14.234-31.642,31.642 v13.824c0,6.624,2.357,12.725,6.27,17.51h-28.286c-2.867,0-5.12,2.253-5.12,5.12s2.253,5.12,5.12,5.12h49.766h6.963h18.534 c16.896,0,30.72,13.824,30.72,30.72v5.12H137.523v-5.12c0-16.896,13.824-30.72,30.72-30.72h25.498 c15.258,0,27.75-12.493,27.75-27.75v-13.824c0-8.236-3.189-15.758-8.389-21.402h16.889c2.867,0,5.12-2.253,5.12-5.12 s-2.253-5.12-5.12-5.12H189.85h-6.554H35.84c-14.131,0-25.6-11.469-25.6-25.6V35.84c0-14.131,11.469-25.6,25.6-25.6h440.32 c14.131,0,25.6,11.469,25.6,25.6V367.104z"></path><path d="M265.728,392.704H256c-2.867,0-5.12,2.253-5.12,5.12s2.253,5.12,5.12,5.12h9.728c2.867,0,5.12-2.253,5.12-5.12 S268.595,392.704,265.728,392.704z"></path><path d="M131.379,272.691H81.613c-8.499,0-15.36,6.861-15.36,15.36v34.099c0,8.499,6.861,15.36,15.36,15.36h49.869 c8.499,0,15.36-6.861,15.36-15.36v-34.202C146.637,279.347,139.878,272.691,131.379,272.691z M136.602,322.15 c0,2.867-2.253,5.12-5.12,5.12H81.613c-2.867,0-5.12-2.253-5.12-5.12v-34.099c0-2.867,2.253-5.12,5.12-5.12h49.766 c2.867,0,5.12,2.253,5.222,5.12V322.15z"></path><path d="M231.117,272.691h-49.869c-8.499,0-15.36,6.861-15.36,15.36v34.099c0,8.499,6.861,15.36,15.36,15.36h49.869 c8.499,0,15.36-6.861,15.36-15.36v-34.099C246.477,279.552,239.616,272.691,231.117,272.691z M236.237,322.15 c0,2.867-2.253,5.12-5.12,5.12h-49.869c-2.867,0-5.12-2.253-5.12-5.12v-34.099c0-2.867,2.253-5.12,5.12-5.12h49.869 c2.867,0,5.12,2.253,5.12,5.12V322.15z"></path><path d="M330.752,272.691h-49.869c-8.499,0-15.36,6.861-15.36,15.36v34.099c0,8.499,6.861,15.36,15.36,15.36h49.869 c8.499,0,15.36-6.861,15.36-15.36v-34.099C346.112,279.552,339.251,272.691,330.752,272.691z M335.872,322.15 c0,2.867-2.253,5.12-5.12,5.12h-49.869c-2.867,0-5.12-2.253-5.12-5.12v-34.099c0-2.867,2.253-5.12,5.12-5.12h49.869 c2.867,0,5.12,2.253,5.12,5.12V322.15z"></path><path d="M430.387,272.691h-49.869c-8.499,0-15.36,6.861-15.36,15.36v34.099c0,8.499,6.861,15.36,15.36,15.36h49.869 c8.499,0,15.36-6.861,15.36-15.36v-34.099C445.747,279.552,438.886,272.691,430.387,272.691z M435.507,322.15 c0,2.867-2.253,5.12-5.12,5.12h-49.869c-2.867,0-5.12-2.253-5.12-5.12v-34.099c0-2.867,2.253-5.12,5.12-5.12h49.869 c2.867,0,5.12,2.253,5.12,5.12V322.15z"></path><path d="M106.496,230.502c13.816,0,25.365-10.008,27.787-23.142h44.06c2.422,13.135,13.971,23.142,27.787,23.142 c15.565,0,28.262-12.698,28.262-28.262c0-3.056-0.496-5.998-1.4-8.758l49.867-27.304c5.133,7.189,13.536,11.896,23.008,11.896 c15.565,0,28.262-12.698,28.262-28.262c0-3.432-0.619-6.724-1.749-9.772l48.027-18.328c4.713,9.074,14.198,15.301,25.094,15.301 c15.565,0,28.262-12.698,28.262-28.262c0-15.565-12.698-28.262-28.262-28.262s-28.262,12.698-28.262,28.262 c0,1.038,0.061,2.063,0.171,3.073l-50.43,19.245c-5.184-5.831-12.731-9.518-21.114-9.518c-15.565,0-28.262,12.698-28.262,28.262 c0,2.433,0.31,4.796,0.893,7.051l-50.424,27.609c-5.189-6.393-13.102-10.494-21.945-10.494 c-13.816,0-25.365,10.008-27.787,23.142h-44.06c-2.422-13.135-13.971-23.142-27.787-23.142 c-15.565,0-28.262,12.698-28.262,28.262S90.931,230.502,106.496,230.502z M405.504,90.726c9.933,0,18.022,8.09,18.022,18.022 s-8.09,18.022-18.022,18.022c-7.987,0-14.772-5.234-17.128-12.447c-0.055-0.358-0.144-0.716-0.28-1.069 c-0.011-0.03-0.03-0.054-0.042-0.084c-0.36-1.418-0.572-2.894-0.572-4.422C387.482,98.816,395.571,90.726,405.504,90.726z M305.869,131.789c9.933,0,18.022,8.09,18.022,18.022s-8.09,18.022-18.022,18.022s-18.022-8.09-18.022-18.022 S295.936,131.789,305.869,131.789z M206.131,184.218c9.933,0,18.022,8.09,18.022,18.022c0,9.933-8.09,18.022-18.022,18.022 s-18.022-8.09-18.022-18.022C188.109,192.307,196.198,184.218,206.131,184.218z M106.496,184.218 c9.933,0,18.022,8.09,18.022,18.022c0,9.933-8.09,18.022-18.022,18.022c-9.933,0-18.022-8.09-18.022-18.022 C88.474,192.307,96.563,184.218,106.496,184.218z"></path></g></g></g></svg>