<!-- icon666.com - MILLIONS OF FREE VECTOR ICONS --><svg version="1.1" id="Capa_1" xmlns="http://www.w3.org/2000/svg" xmlns:xlink="http://www.w3.org/1999/xlink" x="0px" y="0px" viewBox="0 0 512 512" style="enable-background:new 0 0 512 512;" xml:space="preserve"><g><g><g><path d="M461.21,43.315c-27.955,0-50.79,22.835-50.79,50.79c0,3.629,0.393,7.169,1.124,10.587l-45.17,17.271 c-9.144-13.396-24.526-22.226-41.97-22.226c-28.058,0-50.79,22.835-50.79,50.79c0,6.132,1.1,12.018,3.111,17.471l-47.295,25.797 c-9.178-13.308-24.519-22.071-41.832-22.071c-26.227,0-47.947,20.1-50.532,45.67h-35.743c-2.585-25.57-24.304-45.67-50.532-45.67 C22.835,171.725,0,194.56,0,222.515s22.835,50.79,50.79,50.79c26.227,0,47.947-20.1,50.532-45.67h35.743 c2.585,25.57,24.304,45.67,50.532,45.67c27.955,0,50.79-22.835,50.79-50.79c0-6.989-1.427-13.657-4.005-19.729l46.864-25.562 c8.978,14.437,24.982,24.094,43.157,24.094c27.955,0,50.79-22.835,50.79-50.79c0-6.872-1.38-13.432-3.869-19.422l43.405-16.596 c7.891,17.855,25.775,30.386,46.48,30.386c28.058,0,50.79-22.835,50.79-50.79S489.165,43.315,461.21,43.315z M50.79,263.066 c-22.323,0-40.55-18.227-40.55-40.55s18.227-40.55,40.55-40.55s40.55,18.227,40.55,40.55S73.114,263.066,50.79,263.066z M187.597,263.066c-22.323,0-40.55-18.227-40.55-40.55s18.227-40.55,40.55-40.55s40.55,18.227,40.55,40.55 S209.92,263.066,187.597,263.066z M324.403,191.078c-22.323,0-40.55-18.227-40.55-40.55c0-22.323,18.227-40.55,40.55-40.55 c22.323,0,40.55,18.227,40.55,40.55C364.954,172.851,346.726,191.078,324.403,191.078z M461.21,134.656 c-22.323,0-40.55-18.227-40.55-40.55s18.227-40.55,40.55-40.55c22.323,0,40.55,18.227,40.55,40.55 S483.533,134.656,461.21,134.656z"></path><path d="M50.79,340.48c-2.867,0-5.12,2.253-5.12,5.12v117.965c0,2.867,2.253,5.12,5.12,5.12s5.12-2.253,5.12-5.12V345.6 C55.91,342.733,53.658,340.48,50.79,340.48z"></path><path d="M50.79,295.629c-2.867,0-5.12,2.253-5.12,5.12v13.414c0,2.867,2.253,5.12,5.12,5.12s5.12-2.253,5.12-5.12v-13.414 C55.91,297.882,53.658,295.629,50.79,295.629z"></path><path d="M187.597,295.629c-2.867,0-5.12,2.253-5.12,5.12v13.414c0,2.867,2.253,5.12,5.12,5.12s5.12-2.253,5.12-5.12v-13.414 C192.717,297.882,190.464,295.629,187.597,295.629z"></path><path d="M187.597,340.48c-2.867,0-5.12,2.253-5.12,5.12v117.965c0,2.867,2.253,5.12,5.12,5.12s5.12-2.253,5.12-5.12V345.6 C192.717,342.733,190.464,340.48,187.597,340.48z"></path><path d="M324.403,223.642c-2.867,0-5.12,2.253-5.12,5.12v13.414c0,2.867,2.253,5.12,5.12,5.12c2.867,0,5.12-2.253,5.12-5.12 v-13.414C329.523,225.894,327.27,223.642,324.403,223.642z"></path><path d="M324.403,269.005c-2.867,0-5.12,2.253-5.12,5.12v189.44c0,2.867,2.253,5.12,5.12,5.12c2.867,0,5.12-2.253,5.12-5.12 v-189.44C329.523,271.258,327.27,269.005,324.403,269.005z"></path><path d="M461.21,185.446c-2.867,0-5.12,2.253-5.12,5.12v13.414c0,2.867,2.253,5.12,5.12,5.12c2.867,0,5.12-2.253,5.12-5.12 v-13.414C466.33,187.699,464.077,185.446,461.21,185.446z"></path><path d="M461.21,231.117c-2.867,0-5.12,2.253-5.12,5.12v227.328c0,2.867,2.253,5.12,5.12,5.12c2.867,0,5.12-2.253,5.12-5.12 V236.237C466.33,233.37,464.077,231.117,461.21,231.117z"></path></g></g></g></svg>