<!-- icon666.com - MILLIONS OF FREE VECTOR ICONS --><svg viewBox="-24 0 512 512" xmlns="http://www.w3.org/2000/svg"><path d="m408 136c13.253906 0 24-10.746094 24-24v-16h8c13.253906 0 24-10.746094 24-24v-32c0-13.253906-10.746094-24-24-24h-8v-16h-112v16h-8c-13.253906 0-24 10.746094-24 24v32c0 13.253906 10.746094 24 24 24h8v16c0 13.253906 10.746094 24 24 24h24v16h-48v24h-32v104h-144v104h-144v128h464v-336h-32v-24h-48v-16zm-264 360h-128v-96h128zm144 0h-128v-200h128zm160 0h-144v-304h144zm-32-320h-80v-8h80zm24-144c4.417969 0 8 3.582031 8 8v32c0 4.417969-3.582031 8-8 8h-8v-48zm-128 48c-4.417969 0-8-3.582031-8-8v-32c0-4.417969 3.582031-8 8-8h8v48zm24 32v-96h80v96c0 4.417969-3.582031 8-8 8h-64c-4.417969 0-8-3.582031-8-8zm0 0"></path><path d="m80 368c17.671875 0 32-14.328125 32-32s-14.328125-32-32-32-32 14.328125-32 32 14.328125 32 32 32zm0-48c8.835938 0 16 7.164062 16 16s-7.164062 16-16 16-16-7.164062-16-16 7.164062-16 16-16zm0 0"></path><path d="m224 264c17.671875 0 32-14.328125 32-32s-14.328125-32-32-32-32 14.328125-32 32 14.328125 32 32 32zm0-48c8.835938 0 16 7.164062 16 16s-7.164062 16-16 16-16-7.164062-16-16 7.164062-16 16-16zm0 0"></path><path d="m136 240v-16c-35.328125.039062-63.960938 28.671875-64 64h16c.027344-26.5 21.5-47.972656 48-48zm0 0"></path><path d="m280 136v-16c-35.328125.039062-63.960938 28.671875-64 64h16c.027344-26.5 21.5-47.972656 48-48zm0 0"></path><path d="m416 208h16v272h-16zm0 0"></path><path d="m256 312h16v168h-16zm0 0"></path><path d="m112 416h16v64h-16zm0 0"></path></svg>