<!-- icon666.com - MILLIONS OF FREE VECTOR ICONS --><svg id="Layer_1" enable-background="new 0 0 512 512" viewBox="0 0 512 512" xmlns="http://www.w3.org/2000/svg"><path d="m222.434 257.821c10.076 0 18.253-7.888 18.617-17.956l2.687-74.404c.187-5.174-1.614-9.878-5.208-13.604-3.594-3.727-8.23-5.696-13.408-5.696h-5.374c-5.178 0-9.814 1.97-13.409 5.696-3.593 3.726-5.395 8.43-5.208 13.605l2.687 74.402c.362 10.07 8.54 17.957 18.616 17.957zm-4.579-94.857c.572-.594 1.067-.804 1.892-.804h5.374c.824 0 1.319.21 1.892.804s.765 1.096.735 1.92l-2.687 74.403c-.051 1.421-1.206 2.534-2.627 2.534-1.422 0-2.577-1.112-2.628-2.534l-2.687-74.401c-.029-.825.163-1.328.736-1.922zm4.579 96.485c-11.919 0-21.617 9.697-21.617 21.617 0 11.919 9.697 21.616 21.617 21.616s21.617-9.697 21.617-21.616c-.001-11.92-9.698-21.617-21.617-21.617zm0 27.234c-3.097 0-5.617-2.52-5.617-5.616 0-3.098 2.52-5.617 5.617-5.617s5.617 2.52 5.617 5.617c-.001 3.096-2.52 5.616-5.617 5.616zm276.682 169.419-49.019-47.565c-3.083-2.992-7.154-4.569-11.464-4.54-2.007.03-3.946.436-5.753 1.157l-18.557-18.006c8.796-14.619 13.863-31.725 13.863-49.994 0-25.45-9.83-48.644-25.886-65.996l29.442-11.333c3.089-1.188 5.126-4.156 5.126-7.466v-55.875c0-3.31-2.038-6.277-5.126-7.466l-30.323-11.672c-4.25-16.198-10.675-31.697-19.145-46.181l13.197-29.714c1.344-3.024.686-6.563-1.654-8.904l-39.511-39.51c-2.341-2.339-5.88-2.995-8.904-1.654l-29.725 13.202c-14.482-8.468-29.976-14.891-46.167-19.141l-11.675-30.331c-1.189-3.088-4.156-5.126-7.466-5.126h-55.874c-3.309 0-6.277 2.038-7.466 5.126l-11.676 30.331c-16.19 4.25-31.684 10.673-46.167 19.141l-29.722-13.202c-3.024-1.345-6.564-.686-8.904 1.654l-39.51 39.512c-2.34 2.34-2.998 5.879-1.655 8.903l13.2 29.722c-8.467 14.48-14.892 29.978-19.142 46.17l-30.329 11.675c-3.088 1.188-5.126 4.156-5.126 7.466v55.875c0 3.31 2.038 6.277 5.126 7.466l30.323 11.672c4.251 16.201 10.676 31.7 19.145 46.181l-13.197 29.714c-1.344 3.024-.686 6.563 1.654 8.904l39.51 39.51c2.34 2.34 5.88 2.995 8.904 1.654l29.725-13.202c14.483 8.468 29.976 14.891 46.166 19.141l11.675 30.332c1.188 3.088 4.156 5.126 7.466 5.126h55.875c3.31 0 6.277-2.038 7.466-5.126l9.027-23.453c17.124 15.02 39.545 24.139 64.059 24.139 21.46 0 41.315-6.992 57.419-18.809l17.715 17.19c-.666 1.827-1.014 3.776-.984 5.782.065 4.312 1.799 8.333 4.881 11.323l49.02 47.566c3.126 3.033 7.175 4.543 11.221 4.543 4.208 0 8.412-1.634 11.567-4.885l17.698-18.239c6.187-6.376 6.034-16.598-.343-22.787zm-78.386-40.444-4.54 4.678-15.724-15.258c1.519-1.555 2.987-3.159 4.401-4.813zm-175.851 7.198h-44.89l-11.194-29.084c-.947-2.461-3.047-4.298-5.614-4.908-17.401-4.142-33.97-11.011-49.246-20.417-2.247-1.384-5.031-1.571-7.441-.499l-28.504 12.659-31.742-31.741 12.655-28.493c1.071-2.411.884-5.195-.5-7.442-9.406-15.271-16.276-31.845-20.42-49.26-.611-2.565-2.447-4.666-4.909-5.613l-29.075-11.191v-44.889l29.08-11.194c2.461-.947 4.298-3.048 4.909-5.613 4.142-17.407 11.012-33.978 20.418-49.25 1.383-2.247 1.57-5.031.5-7.442l-12.658-28.501 31.742-31.742 28.503 12.659c2.411 1.071 5.195.885 7.441-.499 15.275-9.406 31.844-16.275 49.246-20.417 2.566-.61 4.666-2.446 5.614-4.908l11.195-29.083h44.889l11.195 29.083c.947 2.462 3.047 4.298 5.614 4.908 17.402 4.143 33.971 11.011 49.246 20.417 2.246 1.383 5.03 1.569 7.441.499l28.503-12.659 31.743 31.741-12.655 28.493c-1.071 2.411-.884 5.195.5 7.442 9.407 15.274 16.278 31.848 20.42 49.259.61 2.566 2.447 4.667 4.909 5.614l29.075 11.191v44.889l-29.083 11.195c-.881.339-1.677.831-2.371 1.434-16.29-12.3-36.553-19.604-58.491-19.604-1.408 0-2.808.037-4.202.096.761-5.139 1.157-10.342 1.157-15.564 0-58.143-47.303-105.445-105.445-105.445s-105.445 47.303-105.445 105.445 47.302 105.445 105.445 105.445c3.857 0 7.716-.213 11.551-.634-.212 2.613-.324 5.253-.324 7.92 0 22.755 7.858 43.708 20.999 60.295zm-8.108-110.139c-4.734.763-9.537 1.151-14.337 1.151-49.32 0-89.445-40.125-89.445-89.445s40.125-89.445 89.445-89.445 89.445 40.125 89.445 89.445c0 5.969-.598 11.906-1.764 17.716-35.741 7.82-64.194 35.347-73.344 70.578zm12.889 24.436c0-44.809 36.455-81.264 81.263-81.264s81.263 36.455 81.263 81.264-36.455 81.264-81.263 81.264-81.263-36.455-81.263-81.264zm238.317 130.593-17.698 18.239c-.031.032-.13.034-.163.002l-49.021-47.567c-.039-.037-.04-.122-.002-.161l17.699-18.239c.019-.021.05-.03.082-.03.03 0 .061.01.08.028l49.019 47.565c.032.032.035.131.004.163zm-157.054-202.689c-39.754 0-72.096 32.343-72.096 72.097s32.342 72.097 72.096 72.097 72.096-32.343 72.096-72.097-32.342-72.097-72.096-72.097zm0 128.193c-30.932 0-56.096-25.165-56.096-56.097s25.165-56.097 56.096-56.097 56.096 25.165 56.096 56.097-25.164 56.097-56.096 56.097z"></path></svg>