<!-- icon666.com - MILLIONS OF FREE VECTOR ICONS --><svg id="Layer_1" enable-background="new 0 0 512 512" viewBox="0 0 512 512" xmlns="http://www.w3.org/2000/svg" xmlns:xlink="http://www.w3.org/1999/xlink"><linearGradient id="SVGID_1_" gradientUnits="userSpaceOnUse" x1="85.667" x2="426.333" y1="401.608" y2="60.942"><stop offset="0" stop-color="#fcc60e"></stop><stop offset="1" stop-color="#e92e29"></stop></linearGradient><path d="m458.785 94.203-199.634-85.556c-2.013-.862-4.29-.862-6.303 0l-199.633 85.556c-2.941 1.261-4.849 4.153-4.849 7.353v162.984c0 58.302 19.531 111.968 56.48 155.196 36.182 42.331 85.706 70.962 143.217 82.798l6.324 1.301c.532.11 1.072.165 1.613.165s1.081-.055 1.613-.165l6.324-1.301c57.511-11.836 107.035-40.467 143.217-82.798 36.95-43.229 56.481-96.895 56.481-155.196v-162.983c-.001-3.201-1.908-6.093-4.85-7.354zm-11.151 170.337c0 109.968-75.119 199.313-186.923 222.323l-4.711.97-4.711-.97c-111.804-23.01-186.923-112.355-186.923-222.323v-157.709l191.634-82.128 191.634 82.128zm-194.786-221.764-168.264 72.113c-2.941 1.261-4.849 4.153-4.849 7.353v142.298c0 51.111 17.158 97.998 49.619 135.589 31.566 36.555 74.802 61.342 125.033 71.68.532.109 1.072.164 1.613.164s1.081-.055 1.613-.164c50.231-10.338 93.466-35.125 125.033-71.68 32.461-37.591 49.619-84.478 49.619-135.589v-142.298c0-3.2-1.907-6.092-4.849-7.353l-168.265-72.113c-2.013-.862-4.29-.862-6.303 0zm163.416 84.741v137.023c0 94.147-64.331 170.814-160.264 191.259-95.934-20.445-160.264-97.112-160.264-191.259v-137.023l160.264-68.684zm-184.087-21.173c-6.302 4.774-9.466 7.171-12.248 8.184-2.782 1.012-6.746 1.21-14.643 1.603-1.992.099-4.209.21-6.699.348-13.776.766-25.146 10.307-28.293 23.74-.569 2.428-1.062 4.593-1.506 6.537-1.759 7.709-2.642 11.579-4.122 14.143-1.48 2.563-4.389 5.263-10.186 10.64-1.462 1.356-3.09 2.867-4.909 4.574-10.061 9.442-12.638 24.059-6.413 36.372 1.125 2.226 2.138 4.202 3.048 5.976 3.607 7.036 5.418 10.567 5.933 13.483s.02 6.854-.964 14.699c-.248 1.979-.524 4.182-.82 6.658-1.638 13.7 5.784 26.554 18.467 31.985 2.293.982 4.34 1.845 6.178 2.619.274.115.533.225.796.336l-28.973 62.23c-1.258 2.702-.91 5.878.903 8.244 1.813 2.365 4.789 3.529 7.726 3.013l31.809-5.558 16.223 27.918c1.436 2.471 4.076 3.98 6.916 3.98.121 0 .243-.003.364-.008 2.977-.135 5.632-1.914 6.89-4.615l29.042-62.381c4.394-1.313 7.083-1.971 9.303-1.971 2.961 0 6.753 1.17 14.309 3.501.77.237 1.585.489 2.428.748l20.78 48.246c1.179 2.737 3.782 4.592 6.753 4.813.199.015.398.022.596.022 2.752 0 5.33-1.419 6.796-3.782l17.026-27.437 31.633 6.479c2.92.599 5.93-.477 7.81-2.788 1.881-2.312 2.321-5.477 1.143-8.214l-23.585-54.76c.486-.207.98-.418 1.49-.636 12.683-5.432 20.104-18.285 18.467-31.985-.296-2.477-.572-4.68-.82-6.658-.984-7.846-1.478-11.783-.964-14.699s2.325-6.447 5.933-13.483c.91-1.774 1.923-3.75 3.048-5.977 6.224-12.314 3.646-26.931-6.414-36.372-1.818-1.707-3.447-3.218-4.909-4.574-5.796-5.377-8.706-8.077-10.186-10.641-1.48-2.563-2.363-6.433-4.122-14.141-.443-1.944-.938-4.109-1.506-6.538-3.147-13.434-14.517-22.974-28.293-23.74-2.49-.138-4.708-.249-6.699-.348-7.897-.393-11.861-.591-14.643-1.603-2.782-1.013-5.945-3.41-12.248-8.184-1.589-1.205-3.36-2.545-5.356-4.04-11.044-8.268-25.888-8.268-36.933 0-1.997 1.496-3.767 2.837-5.356 4.042zm-22.56 256.453-11.324-19.487c-1.683-2.896-4.989-4.436-8.294-3.861l-22.202 3.879 22.022-47.302c1.789 2.049 3.819 5.191 7.1 10.272 1.082 1.675 2.286 3.541 3.651 5.628 5.834 8.92 15.484 13.979 25.661 13.978.19 0 .381-.017.571-.021zm112.817-34.385c-3.283-.673-6.635.772-8.402 3.619l-11.884 19.151-11.092-25.753c8.155-1.434 15.562-6.148 20.372-13.502 1.365-2.088 2.57-3.954 3.652-5.629 4.289-6.642 6.442-9.976 8.709-11.878.847-.711 1.889-1.371 3.24-2.08l17.484 40.595zm-75.313-213.3c2.697-2.019 5.788-3.028 8.879-3.028 3.09 0 6.182 1.009 8.878 3.028 1.969 1.474 3.714 2.796 5.282 3.984 15.128 11.462 16.8 12.07 35.757 13.015 1.964.098 4.151.207 6.606.343 6.727.374 12.067 4.854 13.604 11.414.561 2.395 1.048 4.53 1.485 6.447 4.221 18.504 5.11 20.044 19.025 32.953 1.441 1.338 3.047 2.827 4.841 4.511 4.912 4.61 6.123 11.475 3.083 17.487-1.109 2.195-2.109 4.144-3.006 5.894-8.661 16.889-8.97 18.641-6.607 37.474.245 1.951.517 4.124.809 6.565.799 6.69-2.686 12.726-8.879 15.378-2.261.968-4.279 1.819-6.091 2.583-17.491 7.371-18.853 8.514-29.148 24.458-1.067 1.652-2.255 3.492-3.602 5.551-3.688 5.638-10.237 8.022-16.687 6.074-2.354-.711-4.447-1.357-6.326-1.937-18.137-5.597-19.915-5.597-38.051 0-1.879.58-3.972 1.226-6.326 1.937-6.449 1.948-12.999-.436-16.686-6.074-1.346-2.058-2.534-3.898-3.601-5.55-10.296-15.945-11.658-17.088-29.148-24.458-1.812-.764-3.831-1.614-6.092-2.583-6.193-2.652-9.678-8.688-8.879-15.378.292-2.442.564-4.615.809-6.566 2.362-18.833 2.053-20.584-6.607-37.473-.897-1.75-1.896-3.699-3.006-5.894-3.04-6.012-1.83-12.876 3.083-17.487 1.794-1.684 3.4-3.173 4.842-4.511 13.914-12.908 14.803-14.448 19.024-32.954.438-1.917.925-4.052 1.485-6.446 1.537-6.56 6.876-11.04 13.604-11.414 2.456-.137 4.643-.246 6.606-.343 18.957-.944 20.628-1.553 35.757-13.015 1.568-1.188 3.314-2.511 5.283-3.985zm-62.98 95.887c0 39.623 32.235 71.859 71.858 71.859s71.858-32.236 71.858-71.859-32.235-71.858-71.858-71.858c-39.622 0-71.858 32.235-71.858 71.858zm71.858-55.858c30.8 0 55.858 25.058 55.858 55.858 0 30.801-25.058 55.859-55.858 55.859s-55.858-25.058-55.858-55.859c0-30.8 25.058-55.858 55.858-55.858zm-40.145 52.256c3.124-3.124 8.189-3.124 11.313 0l14.728 14.728 43.217-39.22c3.272-2.97 8.331-2.724 11.301.548 2.969 3.272 2.724 8.332-.548 11.301l-48.861 44.342c-1.529 1.387-3.454 2.076-5.375 2.076-2.052 0-4.1-.785-5.658-2.343l-20.117-20.117c-3.124-3.126-3.124-8.191 0-11.315z" fill="url(#SVGID_1_)"></path></svg>