<!-- icon666.com - MILLIONS OF FREE VECTOR ICONS --><svg id="Layer_1" enable-background="new 0 0 512 512" viewBox="0 0 512 512" xmlns="http://www.w3.org/2000/svg"><path d="m474.224 397.288-18.249 5.207c30.172-41.077 48.025-91.736 48.025-146.495 0-71.865-30.737-136.676-79.741-182.012l-11.584-40.602c-1.212-4.249-5.647-6.712-9.888-5.498-4.249 1.212-6.711 5.639-5.499 9.888l5.207 18.248c-41.077-30.171-91.737-48.024-146.495-48.024-71.864 0-136.675 30.737-182.01 79.741l-40.604 11.586c-4.248 1.212-6.71 5.639-5.498 9.888 1.213 4.249 5.637 6.711 9.889 5.498l18.248-5.207c-30.172 41.076-48.025 91.736-48.025 146.494 0 71.864 30.736 136.675 79.74 182.01l11.585 40.603c1.004 3.515 4.207 5.807 7.689 5.807.727 0 1.466-.1 2.199-.309 4.248-1.213 6.71-5.64 5.498-9.889l-5.207-18.247c41.078 30.172 91.737 48.025 146.496 48.025 71.865 0 136.677-30.737 182.012-79.742l40.601-11.583c4.249-1.213 6.711-5.64 5.499-9.888-1.213-4.25-5.646-6.712-9.888-5.499zm-218.224 90.712c-52.422 0-100.832-17.486-139.723-46.919l23.127-.83c4.415-.159 7.866-3.867 7.708-8.282-.159-4.414-3.836-7.851-8.282-7.708l-40.815 1.466c-45.504-42.385-74.015-102.784-74.015-169.727 0-52.422 17.486-100.831 46.918-139.723l.831 23.126c.155 4.318 3.704 7.713 7.99 7.713.097 0 .194-.001.292-.005 4.416-.159 7.866-3.867 7.708-8.282l-1.466-40.814c42.384-45.503 102.784-74.015 169.727-74.015 52.422 0 100.833 17.486 139.724 46.919l-23.127.831c-4.415.159-7.866 3.866-7.708 8.282.155 4.318 3.704 7.713 7.99 7.713.097 0 .194-.001.292-.005l40.814-1.466c45.503 42.384 74.015 102.784 74.015 169.726 0 52.422-17.486 100.832-46.919 139.723l-.83-23.127c-.158-4.414-3.857-7.823-8.282-7.708-4.415.159-7.866 3.867-7.708 8.282l1.466 40.815c-42.385 45.504-102.785 74.015-169.727 74.015zm181.942-208.46v-47.08c0-3.31-2.038-6.277-5.126-7.466l-24.949-9.604c-3.556-13.326-8.847-26.089-15.772-38.044l10.859-24.448c1.343-3.025.686-6.564-1.655-8.904l-33.292-33.291c-2.339-2.34-5.878-2.998-8.903-1.655l-24.458 10.863c-11.955-6.924-24.714-12.214-38.033-15.769l-9.606-24.957c-1.188-3.089-4.156-5.126-7.466-5.126h-47.081c-3.31 0-6.277 2.038-7.466 5.126l-9.607 24.957c-13.319 3.555-26.078 8.844-38.033 15.769l-24.458-10.863c-3.025-1.343-6.563-.685-8.904 1.655l-33.291 33.292c-2.34 2.34-2.997 5.879-1.654 8.904l10.861 24.455c-6.925 11.954-12.215 24.714-15.77 38.037l-24.955 9.605c-3.088 1.188-5.126 4.156-5.126 7.466v47.081c0 3.31 2.038 6.277 5.126 7.466l24.95 9.604c3.557 13.327 8.848 26.091 15.772 38.045l-10.859 24.449c-1.343 3.024-.686 6.563 1.654 8.904l33.292 33.291c2.342 2.341 5.88 2.995 8.904 1.654l24.457-10.863c11.956 6.925 24.715 12.214 38.033 15.769l9.607 24.957c1.188 3.088 4.156 5.126 7.466 5.126h47.08c3.31 0 6.277-2.038 7.466-5.126l9.604-24.949c13.326-3.556 26.09-8.847 38.045-15.772l24.449 10.859c3.023 1.344 6.563.687 8.904-1.655l33.291-33.292c2.34-2.34 2.997-5.879 1.654-8.903l-10.863-24.458c6.925-11.956 12.214-24.714 15.769-38.033l24.957-9.606c3.089-1.193 5.127-4.161 5.127-7.47zm-16-5.494-23.698 9.122c-2.461.947-4.298 3.048-4.908 5.613-3.459 14.532-9.195 28.369-17.052 41.127-1.383 2.246-1.569 5.03-.499 7.441l10.316 23.228-25.522 25.523-23.219-10.312c-2.41-1.07-5.194-.884-7.442.5-12.755 7.855-26.596 13.594-41.137 17.054-2.566.61-4.667 2.446-5.614 4.908l-9.119 23.691h-36.094l-9.123-23.698c-.947-2.462-3.048-4.298-5.613-4.908-14.532-3.459-28.369-9.195-41.127-17.052-2.246-1.384-5.032-1.569-7.441-.499l-23.227 10.316-25.523-25.522 10.312-23.219c1.07-2.411.884-5.195-.5-7.442-7.855-12.755-13.593-26.596-17.054-41.137-.61-2.566-2.446-4.667-4.908-5.614l-23.692-9.119v-36.095l23.696-9.121c2.462-.947 4.298-3.048 4.908-5.613 3.46-14.537 9.197-28.375 17.052-41.13 1.384-2.246 1.57-5.031.5-7.442l-10.314-23.224 25.522-25.523 23.228 10.316c2.409 1.069 5.195.884 7.441-.5 12.757-7.855 26.594-13.592 41.127-17.05 2.565-.611 4.666-2.447 5.613-4.909l9.123-23.699h36.093l9.122 23.698c.947 2.462 3.048 4.298 5.613 4.909 14.533 3.458 28.37 9.195 41.127 17.05 2.246 1.383 5.032 1.569 7.441.5l23.228-10.316 25.523 25.523-10.312 23.218c-1.07 2.411-.884 5.196.5 7.442 7.855 12.756 13.594 26.597 17.054 41.137.61 2.566 2.446 4.667 4.908 5.614l23.691 9.12zm-165.942-114.134c-52.982 0-96.087 43.104-96.087 96.088s43.104 96.088 96.087 96.088 96.088-43.104 96.088-96.088-43.105-96.088-96.088-96.088zm0 176.175c-44.16 0-80.087-35.928-80.087-80.088s35.927-80.088 80.087-80.088 80.088 35.928 80.088 80.088-35.928 80.088-80.088 80.088zm29.18-63.241c-1.482 2.566-4.172 4.001-6.937 4.001-1.357 0-2.732-.346-3.992-1.072l-22.251-12.848c-2.476-1.429-4-4.069-4-6.928v-33.328c0-4.418 3.582-8 8-8s8 3.582 8 8v28.709l18.252 10.537c3.826 2.21 5.137 7.103 2.928 10.929zm-37.18-79.379v-7.603c0-4.418 3.582-8 8-8s8 3.582 8 8v7.603c0 4.418-3.582 8-8 8s-8-3.582-8-8zm63.25 7.283c3.124 3.125 3.124 8.189 0 11.314l-5.376 5.376c-1.562 1.562-3.609 2.343-5.657 2.343s-4.095-.781-5.657-2.343c-3.124-3.125-3.124-8.189 0-11.314l5.376-5.376c3.124-3.124 8.189-3.124 11.314 0zm0 99.185c3.124 3.125 3.124 8.189 0 11.314-1.562 1.562-3.609 2.343-5.657 2.343s-4.095-.781-5.657-2.343l-5.376-5.376c-3.124-3.125-3.124-8.189 0-11.314 3.125-3.123 8.189-3.123 11.314 0zm-93.811-5.376c3.124 3.124 3.125 8.189.001 11.313l-5.375 5.376c-1.562 1.562-3.61 2.344-5.657 2.344-2.048 0-4.094-.78-5.656-2.343-3.124-3.124-3.125-8.189-.001-11.313l5.375-5.376c3.124-3.125 8.19-3.125 11.313-.001zm.001-88.433c3.124 3.124 3.123 8.189-.001 11.313-1.562 1.562-3.609 2.343-5.656 2.343-2.048 0-4.095-.781-5.657-2.344l-5.375-5.376c-3.124-3.124-3.123-8.189.001-11.313 3.125-3.123 8.19-3.123 11.313.001zm101.092 41.874h7.603c4.418 0 8 3.582 8 8s-3.582 8-8 8h-7.603c-4.418 0-8-3.582-8-8s3.582-8 8-8zm-54.532 70.532v7.603c0 4.418-3.582 8-8 8s-8-3.582-8-8v-7.603c0-4.418 3.582-8 8-8s8 3.582 8 8zm-70.532-54.532h-7.603c-4.418 0-8-3.582-8-8s3.582-8 8-8h7.603c4.418 0 8 3.582 8 8s-3.582 8-8 8z"></path></svg>