<!-- icon666.com - MILLIONS OF FREE VECTOR ICONS --><svg version="1.1" id="Capa_1" xmlns="http://www.w3.org/2000/svg" xmlns:xlink="http://www.w3.org/1999/xlink" x="0px" y="0px" viewBox="0 0 512 512" style="enable-background:new 0 0 512 512;" xml:space="preserve"><g><g><g><path d="M30.925,144.845c0.717,0.41,1.536,0.614,2.355,0.614c1.843,0,3.584-1.024,4.506-2.765 c23.04-44.237,58.368-80.077,102.4-103.526c2.458-1.331,3.379-4.506,2.048-6.963c-1.331-2.458-4.506-3.379-6.963-2.048 C89.6,54.63,52.736,91.904,28.774,137.984C27.443,140.442,28.467,143.514,30.925,144.845z"></path><path d="M512,256.051c0-65.536-24.781-127.795-69.632-175.514C397.722,33.024,337.306,4.659,272.486,0.563 C266.445,0.256,261.018,0.051,256,0.051c-2.867,0-5.12,2.253-5.12,5.12s2.253,5.12,5.12,5.12c4.813,0,10.035,0.205,15.872,0.512 c62.157,3.994,120.115,31.232,163.021,76.8c43.11,45.773,66.867,105.574,66.867,168.448c0,32.901-6.456,64.915-19.102,95.065 c-10.468-9.854-23.208-17.316-37.338-21.507c9.154-23.394,13.739-48.218,13.739-73.661C459.059,144.026,367.923,52.89,256,52.89 c-54.272,0-105.165,21.197-143.565,59.494c-38.4,38.298-59.494,89.293-59.494,143.565c0,111.923,91.136,203.059,203.059,203.059 c25.457,0,50.206-4.59,73.681-13.672c4.191,14.09,11.634,26.796,21.459,37.241c-30.16,12.666-62.118,19.131-95.14,19.131 c-65.638,0-127.386-25.6-173.773-71.987C35.84,383.334,10.24,321.587,10.24,255.949c0-19.968,2.458-39.936,7.27-59.29 c0.614-2.765-1.024-5.53-3.789-6.246c-2.765-0.614-5.53,1.024-6.246,3.789C2.56,214.374,0,235.162,0,255.949 c0,68.403,26.624,132.71,74.957,181.043c48.333,48.333,112.64,74.957,181.043,74.957c35.88,0,70.596-7.354,103.225-21.736 c16.175,13.557,37,21.736,59.693,21.736c51.302,0,93.082-41.779,93.082-93.082c0-22.627-8.131-43.399-21.618-59.553 C504.655,326.608,512,291.911,512,256.051z M256,448.768c-106.291,0-192.819-86.528-192.819-192.819 c0-51.507,20.07-99.942,56.32-136.499c36.454-36.352,84.89-56.422,136.397-56.422c106.291,0,192.819,86.528,192.819,192.819 c0,24.693-4.585,48.652-13.569,71.36c-5.272-0.932-10.695-1.421-16.229-1.421c-11.028,0-21.615,1.935-31.443,5.476 c13.193-22.902,20.076-48.625,20.076-75.313c0-83.558-67.994-151.552-151.552-151.552S104.448,172.39,104.448,255.949 S172.442,407.501,256,407.501c26.724,0,52.48-6.902,75.292-20.017c-3.527,9.811-5.455,20.377-5.455,31.383 c0,5.568,0.494,11.023,1.437,16.325C304.561,444.181,280.602,448.768,256,448.768z M356.932,349.508l-26.378-26.378 c35.486-39.337,34.289-100.264-3.591-138.145c-39.117-39.117-102.81-39.117-141.926,0s-39.117,102.81,0,141.926 c19.558,19.558,45.261,29.389,70.963,29.389c24.123,0,48.246-8.66,67.289-25.895l26.366,26.366 c-3.567,3.974-6.796,8.255-9.646,12.799c-0.081,0.052-0.169,0.087-0.247,0.144c-24.371,18.022-53.35,27.546-83.763,27.546 c-77.926,0-141.312-63.386-141.312-141.312S178.074,114.637,256,114.637s141.312,63.386,141.312,141.312 c0,30.413-9.523,59.392-27.648,83.866c-0.047,0.061-0.075,0.13-0.119,0.193C365.072,342.819,360.853,346,356.932,349.508z M290.615,283.191c2.46-3.112,4.543-6.606,6.14-10.449c4.506-10.854,4.506-22.835,0-33.69 c-4.506-10.854-13.005-19.354-23.859-23.859c-10.854-4.506-22.835-4.506-33.69,0c-10.854,4.506-19.354,13.005-23.859,23.859 c-4.506,10.854-4.506,22.835,0,33.69c4.506,10.854,13.005,19.354,23.859,23.859c5.53,2.253,11.162,3.379,16.794,3.379 c9.906,0,19.569-3.401,27.338-9.526l32.663,32.663c-17.003,15.193-38.544,22.841-60.001,22.841 c-23.04,0-46.08-8.704-63.693-26.317c-35.123-35.226-35.123-92.365,0-127.488c17.51-17.51,40.653-26.317,63.693-26.317 c23.04,0,46.182,8.806,63.693,26.317c33.885,33.984,35.068,88.357,3.572,123.687L290.615,283.191z M259.686,252.262 c-2.048-2.048-5.222-2.048-7.27,0c-2.048,2.048-2.048,5.222,0,7.27l23.712,23.712c-9.222,6.816-21.703,8.758-33.03,4.039 c-8.397-3.482-14.848-10.035-18.33-18.33c-3.482-8.397-3.482-17.613,0-25.907c3.482-8.397,10.035-14.848,18.33-18.33 c4.096-1.741,8.499-2.56,12.902-2.56s8.806,0.819,12.902,2.56c8.397,3.482,14.848,10.035,18.33,18.33 c3.482,8.397,3.482,17.613,0,25.907c-1.033,2.529-2.345,4.857-3.877,6.978L259.686,252.262z M418.918,501.709 c-39.174,0-72.071-27.358-80.644-63.96c-0.04-0.321-0.115-0.638-0.22-0.952c-1.281-5.778-1.977-11.772-1.977-17.929 c0-22.751,9.228-43.389,24.133-58.377c0.078-0.069,0.164-0.121,0.239-0.195c0.069-0.069,0.117-0.149,0.182-0.221 c14.981-14.853,35.582-24.048,58.288-24.048c6.075,0,11.993,0.676,17.7,1.924c0.31,0.1,0.621,0.174,0.935,0.216 c16.813,3.883,31.69,12.881,42.876,25.284c0.073,0.086,0.142,0.173,0.221,0.255c13.115,14.661,21.11,33.994,21.11,55.162 C501.76,464.538,464.589,501.709,418.918,501.709z"></path><path d="M204.288,15.514c0.307,0,0.717,0,1.024-0.102c7.27-1.536,15.258-2.765,24.269-3.789c2.765-0.307,4.813-2.867,4.506-5.632 c-0.307-2.765-2.867-4.813-5.632-4.506c-9.318,1.024-17.613,2.355-25.293,3.994c-2.765,0.512-4.506,3.277-3.891,6.042 C199.782,13.875,201.933,15.514,204.288,15.514z"></path><path d="M408.371,385.587h32.87c2.867,0,5.12-2.253,5.12-5.12s-2.253-5.12-5.12-5.12h-17.203v-12.493 c0-2.867-2.253-5.12-5.12-5.12s-5.12,2.253-5.12,5.12v12.493h-5.427c-9.318,0-16.896,7.578-16.896,16.896v14.95 c0,9.318,7.578,16.896,16.896,16.896h14.848c0.358,0,0.707-0.035,1.043-0.102h5.204c3.686,0,6.656,2.97,6.656,6.656v14.95 c0,3.686-2.97,6.656-6.656,6.656h-10.547c0,0,0,0-0.001,0s0,0-0.001,0h-22.323c-2.867,0-5.12,2.253-5.12,5.12 s2.253,5.12,5.12,5.12h17.203v12.39c0,2.867,2.253,5.12,5.12,5.12s5.12-2.253,5.12-5.12v-12.39h5.427 c9.318,0,16.896-7.578,16.896-16.896v-14.95c0-9.318-7.578-16.896-16.896-16.896h-15.36c-0.358,0-0.707,0.035-1.043,0.102h-4.691 c-3.686,0-6.656-2.97-6.656-6.656v-14.95C401.715,388.557,404.685,385.587,408.371,385.587z"></path></g></g></g></svg>