<!-- icon666.com - MILLIONS OF FREE VECTOR ICONS --><svg version="1.1" id="Capa_1" xmlns="http://www.w3.org/2000/svg" xmlns:xlink="http://www.w3.org/1999/xlink" x="0px" y="0px" viewBox="0 0 511.898 511.898" style="enable-background:new 0 0 511.898 511.898;" xml:space="preserve"><g><g><g><path d="M5.12,289.894c2.867,0,5.12-2.253,5.12-5.12v-14.336c0-2.867-2.253-5.12-5.12-5.12S0,267.571,0,270.438v14.336 C0,287.642,2.253,289.894,5.12,289.894z"></path><path d="M502.067,314.88c0-13.414-6.656-25.395-16.794-32.768c15.462-5.837,26.624-20.89,26.624-38.195 c0-22.323-18.125-40.448-40.448-40.448h-77.824c-16.179,0-31.232-7.27-41.165-20.07c-9.933-12.698-13.414-29.082-9.421-44.749 l12.39-49.459c5.018-20.173-0.922-41.779-15.667-56.525c-11.264-11.264-26.214-17.51-42.086-17.51h-19.968 c-2.867,0-5.12,2.253-5.12,5.12c0,59.29-29.696,113.869-79.565,145.92l-58.018,37.376H5.12c-2.867,0-5.12,2.253-5.12,5.12v31.539 c0,2.867,2.253,5.12,5.12,5.12s5.12-2.253,5.12-5.12v-26.419h121.139V440.73v17.92c0,15.36-12.493,27.853-27.853,27.853H10.24 V310.067c0-2.867-2.253-5.12-5.12-5.12S0,307.2,0,310.067v181.555c0,2.867,2.253,5.12,5.12,5.12h98.406 c16.946,0,31.351-11.147,36.276-26.487c9.886,15.895,27.502,26.487,47.59,26.487h254.669c22.323,0,40.448-18.125,40.346-40.55 c0-13.414-6.554-25.293-16.691-32.666c15.462-5.734,26.522-20.582,26.522-37.99c0-13.414-6.554-25.293-16.691-32.666 C491.008,347.136,502.067,332.288,502.067,314.88z M461.722,345.19h-9.83c-2.867,0-5.12,2.253-5.12,5.12s2.253,5.12,5.12,5.12 c16.691,0,30.208,13.517,30.208,30.208c0,16.691-13.517,30.208-30.208,30.208h-9.83c-2.867,0-5.12,2.253-5.12,5.12 s2.253,5.12,5.12,5.12c16.691,0,30.208,13.517,30.208,30.208c0,16.691-13.517,30.208-30.208,30.208H187.392 c-25.19,0-45.773-20.582-45.773-45.773V211.456l56.934-36.557c25.805-16.589,47.206-39.629,61.85-66.56 c13.824-25.395,21.504-53.965,22.323-82.842h14.95c13.21,0,25.6,5.12,34.918,14.438c12.186,12.083,17.203,30.106,13.005,46.797 l-12.39,49.459c-4.71,18.739-0.614,38.298,11.264,53.555c11.878,15.258,29.901,24.064,49.254,24.064h77.824 c16.691,0,30.208,13.517,30.208,30.208c0,16.589-13.619,30.208-30.208,30.515h-9.83c-2.867,0-5.12,2.253-5.12,5.12 s2.253,5.12,5.12,5.12c16.691,0,30.208,13.517,30.208,30.208C491.93,331.674,478.413,345.19,461.722,345.19z"></path><path d="M103.629,429.978c0-18.022-14.746-32.768-32.768-32.768s-32.768,14.746-32.768,32.768s14.746,32.768,32.768,32.768 S103.629,448,103.629,429.978z M48.333,429.978c0-12.39,10.138-22.528,22.528-22.528c12.39,0,22.528,10.138,22.528,22.528 s-10.138,22.528-22.528,22.528C58.47,452.506,48.333,442.368,48.333,429.978z"></path></g></g></g></svg>