<!-- icon666.com - MILLIONS OF FREE VECTOR ICONS --><svg version="1.1" id="Capa_1" xmlns="http://www.w3.org/2000/svg" xmlns:xlink="http://www.w3.org/1999/xlink" x="0px" y="0px" viewBox="0 0 511.975 511.975" style="enable-background:new 0 0 511.975 511.975;" xml:space="preserve"><g><g><g><path d="M504.73,115.605c-5.325-6.042-13.005-9.421-21.094-9.421H124.006c-7.14,0-13.682,2.603-18.739,6.903V45.871 c0-22.323-17.715-40.96-39.629-41.574C54.477,3.989,44.032,7.983,36.045,15.765c-7.987,7.68-12.39,18.125-12.39,29.286 c0,2.867,2.253,5.12,5.12,5.12s5.12-2.253,5.12-5.12c0-8.294,3.379-16.077,9.318-21.914c5.939-5.837,13.722-8.806,22.118-8.602 c16.384,0.41,29.696,14.438,29.696,31.334v89.293v185.754v53.248c0,22.63,18.33,40.96,40.96,40.96h34.662 c-12.522,9.38-20.633,24.335-20.633,41.165c0,16.83,8.112,31.785,20.634,41.165H52.326c-2.867,0-5.12,2.253-5.12,5.12 s2.253,5.12,5.12,5.12h329.728c28.365,0,51.405-23.04,51.405-51.405c0-16.83-8.112-31.784-20.633-41.165h51.456 c2.867,0,5.12-2.253,5.12-5.12s-2.253-5.12-5.12-5.12H135.987c-16.896,0-30.72-13.824-30.72-30.72v-31.172 c5.057,4.3,11.599,6.903,18.739,6.903h224.256c38.912,0,76.288-14.336,105.165-40.346c28.877-26.112,47.002-61.85,50.995-100.557 l7.373-71.475C512.717,129.532,510.054,121.545,504.73,115.605z M160.256,456.29c0-22.733,18.432-41.165,41.165-41.165 c22.733,0,41.165,18.432,41.165,41.165c0,22.733-18.432,41.165-41.165,41.165C178.688,497.455,160.256,479.023,160.256,456.29z M423.219,456.29c0,22.733-18.432,41.165-41.165,41.165c-22.733,0-41.165-18.432-41.165-41.165 c0-22.733,18.432-41.165,41.165-41.165C404.787,415.125,423.219,433.557,423.219,456.29z M351.283,415.125 c-12.522,9.38-20.633,24.335-20.633,41.165c0,16.83,8.112,31.785,20.634,41.165H232.192c12.522-9.38,20.634-24.335,20.634-41.165 c0-16.83-8.112-31.784-20.633-41.165H351.283z M501.658,136.393l-7.373,71.475c-3.686,36.25-20.685,69.632-47.718,94.003 c-27.034,24.371-61.952,37.786-98.304,37.786H124.006c-10.342,0-18.739-8.397-18.739-18.739V165.884H338.33 c2.867,0,5.12-2.253,5.12-5.12s-2.253-5.12-5.12-5.12H105.267v-20.48c0-10.342,8.397-18.739,18.739-18.739h359.629 c5.222,0,10.035,2.15,13.517,6.042C500.634,126.255,502.17,131.273,501.658,136.393z"></path><path d="M206.131,454.242c-0.205-0.307-0.307-0.614-0.512-0.922c-0.205-0.307-0.41-0.614-0.614-0.819 c-0.922-1.024-2.253-1.536-3.584-1.536c-1.331,0-2.662,0.614-3.584,1.536c-0.205,0.307-0.41,0.512-0.614,0.819 c-0.205,0.307-0.41,0.614-0.512,0.922s-0.205,0.614-0.307,0.922s-0.102,0.717-0.102,1.024s0,0.717,0.102,1.024 s0.205,0.614,0.307,0.922c0.205,0.307,0.307,0.614,0.512,0.922c0.205,0.307,0.41,0.614,0.614,0.819 c0.922,1.024,2.253,1.536,3.584,1.536c1.331,0,2.662-0.512,3.584-1.536c0.205-0.307,0.41-0.512,0.614-0.819 c0.205-0.307,0.41-0.614,0.512-0.922s0.205-0.614,0.307-0.922s0.102-0.614,0.102-1.024c0-0.41,0-0.717-0.102-1.024 S206.234,454.549,206.131,454.242z"></path><path d="M377.242,458.133c0.205,0.307,0.307,0.614,0.512,0.922c0.205,0.307,0.41,0.614,0.614,0.819 c0.307,0.205,0.512,0.41,0.819,0.614c0.307,0.205,0.614,0.41,0.922,0.512s0.614,0.205,0.922,0.307 c0.307,0.102,0.717,0.102,1.024,0.102s0.717,0,1.024-0.205c0.307-0.102,0.614-0.205,0.922-0.307 c0.307-0.205,0.614-0.307,0.922-0.512c0.307-0.205,0.614-0.41,0.819-0.614c0.205-0.307,0.41-0.512,0.614-0.819 c0.205-0.307,0.41-0.614,0.512-0.922s0.205-0.614,0.307-0.922c0.102-0.307,0.102-0.717,0.102-1.024 c0-1.331-0.614-2.662-1.536-3.584c-0.307-0.205-0.512-0.41-0.819-0.614c-0.307-0.205-0.614-0.41-0.922-0.512 c-0.307-0.102-0.614-0.205-0.922-0.307c-0.717-0.102-1.434-0.102-2.048,0c-0.307,0.102-0.614,0.205-0.922,0.307 c-0.307,0.205-0.614,0.307-0.922,0.512c-0.307,0.205-0.614,0.41-0.819,0.614c-0.205,0.307-0.41,0.512-0.614,0.819 c-0.205,0.307-0.41,0.614-0.512,0.922c-0.102,0.307-0.205,0.614-0.307,0.922s-0.102,0.717-0.102,1.024s0,0.717,0.102,1.024 C377.037,457.519,377.139,457.826,377.242,458.133z"></path><path d="M23.245,497.455H5.12c-2.867,0-5.12,2.253-5.12,5.12s2.253,5.12,5.12,5.12h18.125c2.867,0,5.12-2.253,5.12-5.12 S26.112,497.455,23.245,497.455z"></path><path d="M420.966,155.644h-42.701c-2.867,0-5.12,2.253-5.12,5.12s2.253,5.12,5.12,5.12h42.701c2.867,0,5.12-2.253,5.12-5.12 S423.834,155.644,420.966,155.644z"></path><path d="M464.282,155.644h-16.589c-2.867,0-5.12,2.253-5.12,5.12s2.253,5.12,5.12,5.12h16.589c2.867,0,5.12-2.253,5.12-5.12 S467.149,155.644,464.282,155.644z"></path></g></g></g></svg>