<!-- icon666.com - MILLIONS OF FREE VECTOR ICONS --><svg id="Icons" viewBox="0 0 74 74" xmlns="http://www.w3.org/2000/svg"><path d="m50.2 60a4.88 4.88 0 0 1 -1-.11c-8.73-2-20.93-12.76-28-21.92l1.58-1.22c8 10.45 19.58 19.56 26.84 21.19 2.09.47 5-1.8 8.16-6.38a1.14 1.14 0 0 0 -.12-1.46l-5.26-5.27a1.16 1.16 0 0 0 -1.62 0l-3.26 3.25a1 1 0 0 1 -1.41 0l-20.19-20.19a1 1 0 0 1 0-1.42l3.25-3.25a1.13 1.13 0 0 0 .34-.81 1.14 1.14 0 0 0 -.34-.81l-5.27-5.27a1.14 1.14 0 0 0 -1.46-.12c-4.58 3.18-6.85 6.07-6.38 8.16a29.41 29.41 0 0 0 4.45 9.22l-1.66 1.12a30.91 30.91 0 0 1 -4.74-9.9c-.68-3 1.74-6.47 7.18-10.24a3.14 3.14 0 0 1 4 .35l5.27 5.27a3.14 3.14 0 0 1 0 4.44l-2.56 2.55 18.82 18.82 2.55-2.55a3.21 3.21 0 0 1 4.44 0l5.27 5.27a3.14 3.14 0 0 1 .35 4c-3.36 4.83-6.43 7.28-9.23 7.28z" fill="#000000" style="fill: rgb(255, 91, 91);"></path><path d="m37 72a35 35 0 1 1 35-35 35 35 0 0 1 -35 35zm0-68a33 33 0 1 0 33 33 33 33 0 0 0 -33-33z" fill="#000000" style="fill: rgb(255, 91, 91);"></path></svg>