<!-- icon666.com - MILLIONS OF FREE VECTOR ICONS --><svg id="Layer_1" enable-background="new 0 0 512 512" viewBox="0 0 512 512" xmlns="http://www.w3.org/2000/svg"><path d="m141.625 248.253c11.122 0 20.17-9.048 20.17-20.17 0-2.725-.543-5.325-1.527-7.699 5.302-3.638 8.786-9.741 8.786-16.643 0-2.475-.448-4.848-1.268-7.04 5.872-3.53 9.808-9.964 9.809-17.301 0-6.188-2.801-11.733-7.202-15.436 1.328-2.688 2.074-5.711 2.074-8.905 0-11.122-9.048-20.17-20.17-20.17h-30.319c-.628 0-1.246.038-1.86.094.391-1.329.684-2.648.862-3.942.05-.362.075-.728.075-1.093v-19.811c0-21.299-17.33-38.627-38.631-38.627-4.418 0-8 3.582-8 8v25.539c0 13.835-10.919 21.532-23.563 30.445-1.668 1.176-3.367 2.388-5.054 3.614h-29.809c-4.418 0-8 3.582-8 8v84.125c0 4.418 3.582 8 8 8h29.322c11.413 9.97 22.797 13.215 35.917 13.215 10.157 0 21.354-1.941 34.411-4.206l2.298-.397c1.303.266 2.652.406 4.032.406h19.647zm0-16h-19.646c-2.26 0-4.17-1.91-4.17-4.172 0-1.484.771-2.478 1.231-2.938s1.454-1.231 2.939-1.231h.027 19.613.007c2.26 0 4.17 1.91 4.17 4.171s-1.91 4.17-4.171 4.17zm7.26-24.341h-26.906c-2.26 0-4.17-1.91-4.17-4.17 0-2.261 1.91-4.171 4.171-4.171h26.905c2.26 0 4.17 1.909 4.17 4.17s-1.91 4.171-4.17 4.171zm12.71-28.512c0 2.261-1.91 4.171-4.17 4.171h-40.573c-2.261 0-4.171-1.909-4.171-4.17s1.91-4.171 4.171-4.171h40.573c2.26 0 4.17 1.911 4.17 4.17zm-9.297-28.51c2.26 0 4.17 1.909 4.17 4.17s-1.91 4.171-4.17 4.171h-30.318c-2.261 0-4.17-1.91-4.17-4.171s1.91-4.17 4.17-4.17zm-128.3 4.22h16.434c.032 38.887.034 58.664.024 68.125h-16.458zm32.451 72.591c.001-.522.001-50.528-.02-76.538 1.187-.851 2.399-1.708 3.651-2.59 13.52-9.53 30.345-21.391 30.345-43.522v-16.079c8.542 3.238 14.631 11.505 14.631 21.167v19.163c-.439 2.238-2.129 6.559-6.153 10.585-2.722 2.724-3.117 6.999-.942 10.176 3.185 4.65 4.285 8.876 3.362 12.917-1.891 8.281-11.634 14.654-15.735 17.011-3.831 2.2-5.153 7.09-2.952 10.921 1.479 2.575 4.173 4.017 6.944 4.017 1.352 0 2.722-.343 3.978-1.064 1.781-1.023 3.885-2.342 6.091-3.941 1.141 1.858 2.573 3.519 4.233 4.916-1.328 2.687-2.074 5.71-2.074 8.904 0 4.567 1.527 8.786 4.097 12.171-2.658 3.49-4.097 7.723-4.096 12.169 0 2.129.337 4.179.95 6.107-22.476 3.599-34.275 3.675-46.31-6.49zm283.831-64.317c4.738-45.011 45.212-77.77 90.224-73.037 9.184.966 18.021 3.437 26.228 7.282-1.062-4.027 1.152-8.247 5.156-9.607 4.182-1.418 8.727.817 10.147 5.002l7.19 21.168c.791 2.329.467 4.892-.878 6.95s-3.563 3.384-6.014 3.594l-22.275 1.907c-.232.02-.463.029-.692.029-4.109.001-7.604-3.147-7.961-7.317-.336-3.919 2.217-7.413 5.887-8.4-5.845-2.428-12.047-4.021-18.463-4.696-36.237-3.823-68.822 22.564-72.637 58.801-1.48 14.058 1.486 27.929 8.578 40.111 2.223 3.818.93 8.716-2.889 10.938-1.266.736-2.651 1.087-4.018 1.087-2.755 0-5.435-1.424-6.921-3.977-8.813-15.14-12.5-32.372-10.662-49.835zm163.261 17.186c-2.295 21.804-12.944 41.409-29.985 55.205-14.753 11.942-32.77 18.292-51.489 18.293-2.903 0-5.822-.152-8.75-.461-9.178-.966-18.018-3.435-26.227-7.279 1.061 4.027-1.154 8.245-5.157 9.605-.853.289-1.721.427-2.574.427-3.333 0-6.443-2.099-7.574-5.429l-7.19-21.169c-.791-2.329-.467-4.893.879-6.951s3.563-3.383 6.014-3.593l22.275-1.906c4.409-.37 8.276 2.887 8.653 7.288.336 3.92-2.218 7.414-5.889 8.4 5.847 2.429 12.052 4.02 18.465 4.694 17.551 1.848 34.777-3.251 48.497-14.356s22.292-26.89 24.14-44.444c1.48-14.061-1.486-27.93-8.578-40.11-2.223-3.818-.93-8.716 2.888-10.938 3.818-2.224 8.716-.93 10.939 2.888 8.815 15.138 12.502 32.371 10.663 49.836zm-247.543-30.697c25.784 0 46.76-20.977 46.76-46.761 0-25.783-20.977-46.76-46.76-46.76s-46.76 20.977-46.76 46.76c0 25.784 20.977 46.761 46.76 46.761zm0-77.52c16.961 0 30.76 13.799 30.76 30.76 0 16.962-13.799 30.761-30.76 30.761s-30.76-13.799-30.76-30.761 13.799-30.76 30.76-30.76zm-84.985 49.338 9.804 3.773c1.544 5.203 3.625 10.223 6.217 14.998l-4.267 9.607c-1.344 3.024-.686 6.563 1.654 8.904l15.716 15.715c2.341 2.34 5.879 2.996 8.904 1.654l9.612-4.269c4.775 2.591 9.792 4.671 14.992 6.215l3.775 9.809c1.188 3.088 4.156 5.126 7.466 5.126h22.225c3.31 0 6.277-2.038 7.466-5.126l3.774-9.805c5.203-1.544 10.222-3.624 14.998-6.217l9.607 4.267c3.024 1.344 6.564.687 8.904-1.655l15.715-15.716c2.34-2.34 2.998-5.879 1.655-8.903l-4.269-9.611c2.592-4.776 4.672-9.793 6.216-14.992l9.807-3.775c3.089-1.188 5.126-4.156 5.126-7.466v-22.224c0-3.31-2.038-6.277-5.126-7.466l-9.804-3.773c-1.544-5.203-3.625-10.223-6.217-14.999l4.267-9.607c1.344-3.024.686-6.563-1.654-8.904l-15.716-15.716c-2.341-2.34-5.879-2.995-8.904-1.654l-9.612 4.269c-4.774-2.591-9.792-4.671-14.992-6.215l-3.775-9.809c-1.189-3.088-4.157-5.126-7.466-5.126h-22.225c-3.31 0-6.277 2.038-7.466 5.126l-3.775 9.809c-5.2 1.544-10.217 3.624-14.992 6.215l-9.612-4.269c-3.024-1.344-6.563-.686-8.904 1.654l-15.716 15.716c-2.34 2.341-2.998 5.88-1.654 8.904l4.268 9.61c-2.592 4.775-4.672 9.793-6.216 14.994l-9.807 3.774c-3.088 1.188-5.126 4.156-5.126 7.466v22.226c0 3.31 2.038 6.278 5.127 7.466zm10.873-24.198 8.48-3.265c2.461-.947 4.298-3.048 4.909-5.613 1.529-6.425 4.064-12.541 7.537-18.179 1.384-2.247 1.571-5.031.5-7.442l-3.692-8.313 7.948-7.947 8.314 3.692c2.411 1.071 5.195.884 7.441-.499 5.64-3.473 11.756-6.008 18.179-7.537 2.566-.61 4.666-2.447 5.613-4.908l3.264-8.482h11.239l3.265 8.481c.947 2.461 3.047 4.298 5.613 4.908 6.423 1.529 12.54 4.064 18.178 7.537 2.246 1.382 5.029 1.57 7.441.499l8.314-3.692 7.947 7.946-3.691 8.311c-1.071 2.411-.884 5.195.5 7.442 3.473 5.639 6.009 11.756 7.538 18.183.611 2.566 2.447 4.667 4.909 5.614l8.478 3.264v11.238l-8.48 3.265c-2.462.947-4.298 3.048-4.909 5.613-1.528 6.423-4.064 12.538-7.537 18.179-1.383 2.246-1.57 5.03-.5 7.441l3.693 8.314-7.948 7.947-8.31-3.69c-2.413-1.072-5.196-.884-7.442.5-5.638 3.473-11.755 6.008-18.182 7.536-2.566.61-4.667 2.447-5.615 4.909l-3.263 8.479h-11.24l-3.265-8.481c-.947-2.461-3.047-4.298-5.613-4.908-6.423-1.529-12.539-4.064-18.178-7.537-2.247-1.384-5.031-1.57-7.441-.499l-8.314 3.692-7.948-7.946 3.691-8.311c1.071-2.411.884-5.196-.5-7.442-3.472-5.637-6.008-11.755-7.538-18.183-.611-2.566-2.447-4.667-4.91-5.614l-8.477-3.263v-11.239zm74.112 105.574c4.418 0 8 3.582 8 8v41.427c0 4.418-3.582 8-8 8s-8-3.582-8-8v-41.427c0-4.418 3.582-8 8-8zm203.461-56.796c2.969 3.271 2.724 8.331-.548 11.3l-44.802 40.659c-1.529 1.388-3.454 2.076-5.375 2.076-2.052 0-4.1-.785-5.658-2.343l-18.446-18.446c-3.124-3.125-3.124-8.189 0-11.314 3.124-3.123 8.189-3.123 11.313 0l13.057 13.058 39.158-35.537c3.272-2.971 8.332-2.725 11.301.547zm-124.83 184.485c-4.141-3.842-6.422-5.958-7.406-7.662s-1.676-4.737-2.933-10.244c-.338-1.484-.716-3.137-1.15-4.99-2.591-11.064-11.956-18.923-23.302-19.553-1.901-.106-3.595-.19-5.116-.267-5.64-.28-8.747-.436-10.596-1.108s-4.329-2.552-8.831-5.962c-1.213-.92-2.564-1.943-4.088-3.084-9.097-6.81-21.32-6.81-30.418 0-1.524 1.141-2.875 2.164-4.088 3.083-4.502 3.411-6.982 5.29-8.831 5.963s-4.956.828-10.597 1.108c-1.521.076-3.214.16-5.115.267-11.346.63-20.711 8.488-23.302 19.552-.434 1.854-.812 3.507-1.15 4.991-1.256 5.507-1.948 8.54-2.933 10.244-.984 1.704-3.265 3.82-7.406 7.662-1.116 1.035-2.358 2.188-3.746 3.49-8.286 7.776-10.408 19.814-5.282 29.956.859 1.698 1.632 3.206 2.327 4.561 2.577 5.026 3.997 7.795 4.338 9.733.342 1.938-.045 5.024-.748 10.629-.189 1.511-.4 3.192-.626 5.083-1.348 11.283 4.764 21.869 15.209 26.342 1.262.541 2.423 1.032 3.501 1.488l-21.236 45.611c-1.258 2.702-.91 5.879.903 8.244 1.813 2.364 4.792 3.524 7.726 3.014l22.922-4.006 11.69 20.119c1.436 2.471 4.076 3.98 6.916 3.98.121 0 .242-.003.364-.008 2.977-.136 5.632-1.914 6.89-4.615l21.76-46.739c2.637-.769 4.406-1.181 5.722-1.181 1.968 0 4.94.917 10.337 2.582.327.101.665.205 1.009.312l15.481 35.942c1.179 2.737 3.782 4.593 6.753 4.813.199.016.398.022.596.022 2.752 0 5.33-1.419 6.796-3.781l12.27-19.771 22.794 4.668c2.919.603 5.93-.477 7.81-2.787 1.881-2.312 2.321-5.478 1.143-8.214l-17.221-39.983c10.066-4.622 15.921-14.995 14.599-26.052-.226-1.891-.437-3.572-.626-5.083-.703-5.604-1.09-8.691-.748-10.629s1.761-4.707 4.339-9.732c.694-1.354 1.468-2.863 2.327-4.562 5.126-10.142 3.004-22.181-5.282-29.956-1.387-1.303-2.63-2.455-3.745-3.49zm-114.149 142.973-6.792-11.688c-1.683-2.896-4.988-4.433-8.294-3.861l-13.316 2.327 13.899-29.852c.934 1.347 2.029 3.038 3.416 5.185.826 1.278 1.745 2.702 2.787 4.296 4.325 6.614 11.199 10.638 18.643 11.377zm86.508-23.946c-3.282-.674-6.636.771-8.402 3.618l-7.127 11.486-6.092-14.144c5.786-1.596 10.951-5.259 14.45-10.608 1.042-1.594 1.962-3.019 2.788-4.298 3.063-4.744 4.751-7.357 6.258-8.622.108-.091.24-.181.362-.272l11.005 25.551zm22.39-92.8c-.843 1.668-1.603 3.149-2.285 4.479-6.787 13.234-7.08 14.897-5.229 29.654.186 1.482.394 3.135.615 4.99.506 4.235-1.7 8.057-5.621 9.736-1.718.735-3.252 1.382-4.629 1.962-13.705 5.775-14.999 6.861-23.066 19.354-.811 1.256-1.714 2.654-2.737 4.219-2.334 3.569-6.482 5.078-10.564 3.845-1.79-.54-3.38-1.031-4.808-1.472-14.211-4.385-15.899-4.385-30.109 0-1.428.44-3.019.932-4.809 1.472-4.085 1.234-8.23-.275-10.564-3.845-1.023-1.564-1.926-2.962-2.737-4.218-8.067-12.493-9.36-13.579-23.063-19.354-1.378-.581-2.913-1.228-4.633-1.965-3.921-1.679-6.127-5.5-5.621-9.735.222-1.855.429-3.508.615-4.99 1.851-14.757 1.558-16.42-5.229-29.654-.682-1.329-1.441-2.811-2.284-4.479-1.924-3.807-1.158-8.152 1.952-11.071 1.363-1.279 2.583-2.41 3.679-3.427 10.903-10.115 11.748-11.577 15.055-26.076.333-1.458.703-3.08 1.129-4.901.973-4.153 4.353-6.989 8.612-7.227 1.867-.104 3.53-.187 5.023-.261 14.853-.74 16.439-1.317 28.294-10.299 1.191-.902 2.518-1.907 4.014-3.027 1.708-1.278 3.664-1.917 5.621-1.917s3.914.639 5.621 1.917c1.497 1.12 2.823 2.126 4.015 3.028 11.854 8.98 13.44 9.558 28.293 10.298 1.493.074 3.156.157 5.023.261 4.259.237 7.639 3.073 8.612 7.228.426 1.82.797 3.442 1.129 4.9 3.308 14.499 4.152 15.961 15.055 26.076 1.096 1.017 2.316 2.147 3.679 3.428 3.11 2.919 3.876 7.265 1.952 11.071zm-73.38-51.417c-31.233 0-56.644 25.411-56.644 56.645s25.411 56.645 56.644 56.645c31.234 0 56.645-25.411 56.645-56.645s-25.411-56.645-56.645-56.645zm0 97.289c-22.411 0-40.644-18.233-40.644-40.645s18.233-40.645 40.644-40.645c22.412 0 40.645 18.233 40.645 40.645s-18.233 40.645-40.645 40.645zm-85.137-101.781-29.294-29.294c-3.124-3.125-3.124-8.189 0-11.314 3.124-3.123 8.189-3.123 11.313 0l29.294 29.294c3.124 3.125 3.124 8.189 0 11.314-1.562 1.562-3.609 2.343-5.657 2.343s-4.094-.781-5.656-2.343zm199.568-40.608c3.124 3.124 3.125 8.189 0 11.314l-29.293 29.294c-1.562 1.562-3.609 2.343-5.657 2.343s-4.095-.781-5.657-2.343c-3.124-3.124-3.125-8.189 0-11.314l29.293-29.294c3.125-3.123 8.19-3.123 11.314 0zm-84.507 80.94c2.97 3.271 2.724 8.331-.547 11.3l-34.001 30.857c-1.529 1.388-3.454 2.076-5.375 2.076-2.052 0-4.1-.785-5.658-2.344l-13.999-14c-3.124-3.124-3.124-8.189 0-11.313 3.125-3.123 8.19-3.123 11.314.001l8.609 8.61 28.357-25.735c3.272-2.968 8.331-2.724 11.3.548z"></path></svg>