<!-- icon666.com - MILLIONS OF FREE VECTOR ICONS --><svg id="Layer_1" enable-background="new 0 0 512 512" viewBox="0 0 512 512" xmlns="http://www.w3.org/2000/svg"><path clip-rule="evenodd" d="m300.281 366.3-61.113 35.595c-1.093.637-2.193 1.201-3.306 1.693.165-.503.317-1.018.458-1.541 3.479-12.985-4.196-26.529-17.472-30.833-.343-.111-.693-.199-1.047-.263-17.35-3.129-34.572-9.355-48.41-14.358-4.86-1.757-9.451-3.417-13.378-4.69-16.609-5.39-31.386 1.144-43.649 8.245l-43.216 25.021-3.005-5.31c-4.617-8.157-15.009-11.035-23.166-6.421l-17.146 9.705c-3.943 2.231-6.784 5.874-7.998 10.256s-.655 8.967 1.577 12.909l50.412 89.075c3.124 5.519 8.891 8.622 14.822 8.622 2.834 0 5.706-.709 8.344-2.202l17.146-9.705c3.943-2.231 6.783-5.874 7.998-10.255 1.215-4.382.655-8.967-1.576-12.91l-3.939-6.96 7.227-4.172 77.243 20.697c4.547 1.219 9.072 1.825 13.523 1.825 9.009 0 17.715-2.482 25.676-7.383l110.907-68.292c11.245-6.923 14.862-24.288 7.588-36.432-3.508-5.854-17.798-23.291-54.5-1.916zm-198.03 111.874-17.146 9.705c-.462.263-1.099.086-1.361-.377l-50.412-89.075c-.162-.286-.135-.568-.083-.755s.173-.442.46-.604l17.146-9.705c.146-.083.31-.122.474-.122.354 0 .708.183.887.499l50.413 89.074c.262.462.085 1.098-.378 1.36zm236.55-87.152-110.907 68.292c-8.168 5.028-17.141 6.283-26.668 3.729l-80.445-21.555c-2.05-.549-4.234-.261-6.07.799l-9.978 5.76-27.706-48.954 43.351-25.099c13.233-7.661 22.126-9.652 30.696-6.872 3.675 1.191 7.938 2.733 12.875 4.518 14.249 5.151 31.942 11.548 50.404 14.947 4.983 1.832 7.77 6.622 6.511 11.32-.502 1.874-2.034 7.535-11.279 6.494-8.846-1.828-17.304-4.24-26.25-6.795-4.301-1.229-8.749-2.499-13.331-3.727-4.267-1.141-8.654 1.39-9.798 5.657-1.144 4.268 1.389 8.654 5.657 9.798 4.455 1.193 8.838 2.445 13.078 3.656 9.377 2.678 18.235 5.208 27.821 7.167.054.011.265.049.318.058l7.607 1.237c11.976 1.916 22.619.041 32.533-5.732l61.114-35.596c15.974-9.303 28.511-10.716 32.718-3.69 3.057 5.105 1.288 12.41-2.251 14.588zm-284.239 11.301c.489 3.345-1.826 6.454-5.172 6.943s-6.454-1.826-6.943-5.172 1.826-6.454 5.172-6.943 6.454 1.826 6.943 5.172zm292.185-205.962c-4.388-4.071-6.59-6.114-7.611-7.882s-1.688-4.696-3.02-10.531c-.347-1.519-.732-3.209-1.177-5.106-2.633-11.239-12.146-19.221-23.671-19.863-1.945-.108-3.677-.194-5.232-.271-5.978-.298-8.979-.447-10.896-1.145-1.918-.698-4.312-2.512-9.083-6.127-1.241-.94-2.624-1.988-4.183-3.155-9.241-6.918-21.659-6.918-30.9 0-1.56 1.167-2.942 2.214-4.183 3.155-4.771 3.614-7.166 5.429-9.083 6.127-1.918.698-4.918.847-10.896 1.145-1.555.077-3.287.164-5.232.271-11.525.642-21.038 8.624-23.671 19.863-.444 1.896-.83 3.587-1.176 5.105-1.331 5.835-2 8.765-3.02 10.532-1.021 1.768-3.223 3.811-7.611 7.882-1.142 1.059-2.413 2.239-3.833 3.572-8.417 7.9-10.573 20.129-5.366 30.431.878 1.738 1.67 3.281 2.38 4.667 2.731 5.326 4.102 7.999 4.456 10.009s-.019 4.992-.764 10.93c-.194 1.545-.41 3.266-.641 5.2-1.37 11.462 4.839 22.216 15.45 26.76 1.36.582 2.607 1.11 3.758 1.596l-21.808 46.841c-1.258 2.702-.91 5.878.903 8.244 1.813 2.365 4.79 3.529 7.726 3.013l23.579-4.12 12.026 20.695c1.436 2.471 4.076 3.98 6.916 3.98.121 0 .243-.003.364-.008 2.977-.135 5.632-1.914 6.89-4.615l22.3-47.898c2.81-.824 4.593-1.238 5.987-1.238 2.041 0 4.912.886 10.631 2.65.361.111.733.226 1.114.344l15.873 36.854c1.179 2.737 3.782 4.592 6.753 4.813.199.015.398.022.596.022 2.752 0 5.33-1.419 6.796-3.782l12.621-20.338 23.449 4.803c2.921.598 5.929-.477 7.81-2.788s2.321-5.477 1.143-8.214l-17.69-41.073c10.327-4.656 16.344-15.25 14.994-26.543-.231-1.934-.447-3.654-.641-5.199-.745-5.938-1.119-8.92-.764-10.93.354-2.01 1.725-4.683 4.456-10.009.71-1.386 1.502-2.929 2.38-4.667 5.208-10.302 3.052-22.531-5.365-30.432-1.421-1.331-2.692-2.511-3.834-3.57zm-116.647 146.548-7.127-12.265c-1.683-2.896-4.991-4.436-8.294-3.861l-13.973 2.441 14.508-31.162c.975 1.393 2.145 3.204 3.678 5.578.845 1.309 1.786 2.766 2.853 4.397 4.444 6.795 11.537 10.9 19.198 11.582zm88.455-24.719c-3.282-.673-6.636.772-8.402 3.619l-7.479 12.053-6.46-14.999c5.961-1.591 11.291-5.329 14.887-10.826 1.066-1.629 2.006-3.086 2.851-4.395 3.247-5.028 4.876-7.552 6.44-8.864.172-.144.362-.287.565-.429l11.495 26.688zm23.11-95.044c-.863 1.708-1.641 3.223-2.338 4.584-6.918 13.491-7.217 15.187-5.33 30.231.19 1.518.402 3.208.629 5.107.528 4.417-1.773 8.402-5.862 10.153-1.759.753-3.329 1.415-4.738 2.009-13.972 5.888-15.291 6.995-23.516 19.732-.83 1.285-1.754 2.716-2.801 4.317-2.435 3.722-6.76 5.296-11.018 4.01-1.831-.554-3.459-1.056-4.92-1.507-14.488-4.471-16.209-4.471-30.698 0-1.461.451-3.089.953-4.92 1.507-4.259 1.286-8.583-.287-11.018-4.01-1.048-1.602-1.972-3.033-2.802-4.319-8.224-12.736-9.542-13.842-23.515-19.73-1.41-.594-2.979-1.255-4.737-2.008-4.089-1.751-6.39-5.737-5.862-10.153.227-1.899.439-3.589.629-5.107 1.887-15.044 1.588-16.74-5.33-30.231-.698-1.361-1.475-2.877-2.338-4.585-2.007-3.97-1.208-8.502 2.036-11.546 1.395-1.31 2.644-2.468 3.765-3.508 11.115-10.312 11.976-11.802 15.348-26.585.34-1.491.719-3.152 1.155-5.014 1.015-4.331 4.541-7.29 8.982-7.537 1.91-.106 3.611-.191 5.139-.267 15.144-.754 16.761-1.343 28.847-10.499 1.219-.924 2.577-1.952 4.109-3.099 1.781-1.333 3.821-1.999 5.862-1.999s4.082.667 5.862 1.999c1.532 1.146 2.89 2.175 4.109 3.099 12.085 9.156 13.703 9.745 28.846 10.499 1.528.076 3.229.161 5.138.267 4.442.247 7.968 3.206 8.982 7.537.437 1.863.815 3.524 1.156 5.016 3.372 14.782 4.233 16.272 15.349 26.584 1.122 1.04 2.37 2.198 3.765 3.507 3.243 3.043 4.042 7.575 2.035 11.546zm-75.242-52.506c-31.855 0-57.77 25.916-57.77 57.77 0 31.855 25.916 57.77 57.77 57.77s57.77-25.916 57.77-57.77c0-31.855-25.916-57.77-57.77-57.77zm0 99.54c-23.032 0-41.77-18.738-41.77-41.77s18.738-41.77 41.77-41.77 41.77 18.738 41.77 41.77-18.738 41.77-41.77 41.77zm32.804-64.426c2.969 3.272 2.724 8.332-.548 11.301l-38.082 34.56c-1.529 1.387-3.454 2.076-5.375 2.076-2.052 0-4.1-.785-5.658-2.343l-15.679-15.679c-3.124-3.124-3.124-8.189 0-11.313s8.189-3.124 11.313 0l10.29 10.29 32.437-29.438c3.274-2.972 8.333-2.726 11.302.546zm193.369-100.059-50.412-89.074c-2.231-3.943-5.874-6.784-10.256-7.998-4.381-1.215-8.966-.654-12.909 1.577l-17.147 9.705c-8.157 4.616-11.038 15.008-6.421 23.166l3.939 6.96-7.227 4.173-77.243-20.697c-13.751-3.686-27.305-1.764-39.199 5.559l-110.907 68.292c-11.245 6.923-14.861 24.288-7.588 36.432 3.506 5.854 17.797 23.292 54.498 1.916l61.113-35.596c1.093-.636 2.193-1.2 3.306-1.693-.165.503-.317 1.018-.458 1.541-3.479 12.986 4.196 26.529 17.472 30.834.343.111.693.199 1.047.263 17.351 3.129 34.573 9.355 48.412 14.358 4.86 1.757 9.45 3.417 13.377 4.69 4.279 1.388 8.435 1.985 12.459 1.985 11.596 0 22.086-4.958 31.19-10.23l43.216-25.021 3.005 5.31c2.231 3.943 5.874 6.784 10.256 7.998 1.515.42 3.054.628 4.583.628 2.893 0 5.748-.745 8.327-2.205l17.148-9.705c8.154-4.619 11.034-15.011 6.419-23.168zm-100.972 32.314c-13.232 7.662-22.125 9.653-30.696 6.872-3.674-1.191-7.938-2.732-12.874-4.517-14.249-5.152-31.943-11.549-50.405-14.947-4.983-1.832-7.77-6.622-6.511-11.321.502-1.874 2.033-7.535 11.279-6.494 8.847 1.827 17.306 4.24 26.253 6.796 4.301 1.228 8.748 2.498 13.329 3.726.693.186 1.39.274 2.075.274 3.532 0 6.765-2.357 7.723-5.932 1.144-4.268-1.389-8.654-5.657-9.798-4.454-1.193-8.837-2.445-13.075-3.655-9.379-2.679-18.237-5.208-27.824-7.168-.053-.011-.264-.049-.317-.058l-7.607-1.237c-11.978-1.917-22.62-.041-32.534 5.732l-61.114 35.596c-15.974 9.303-28.51 10.716-32.719 3.689-3.057-5.104-1.288-12.408 2.251-14.586l110.907-68.292c8.168-5.029 17.14-6.285 26.668-3.729l80.444 21.555c2.05.548 4.233.261 6.071-.799l9.978-5.761 27.706 48.954zm86.67-23.073-17.148 9.705c-.286.162-.569.135-.754.083-.187-.052-.443-.173-.605-.459l-50.412-89.074c-.162-.287-.135-.569-.083-.756s.173-.442.46-.604l17.147-9.705c.163-.092.324-.123.467-.123.109 0 .207.018.288.04.187.052.442.173.604.46l50.412 89.073c.263.462.086 1.098-.376 1.36zm-8.738-7.027c.489 3.345-1.826 6.454-5.172 6.943-3.345.489-6.454-1.826-6.943-5.172s1.826-6.454 5.172-6.943c3.345-.49 6.454 1.826 6.943 5.172z" fill-rule="evenodd"></path></svg>