<!-- icon666.com - MILLIONS OF FREE VECTOR ICONS --><svg id="Layer_1" enable-background="new 0 0 512 512" viewBox="0 0 512 512" xmlns="http://www.w3.org/2000/svg"><path d="m106.689 306.957c0 4.418-3.582 8-8 8h-52.365c-4.418 0-8-3.582-8-8v-52.364c0-4.418 3.582-8 8-8s8 3.582 8 8v44.364h44.365c4.419 0 8 3.582 8 8zm-60.365-166.181c4.418 0 8-3.582 8-8v-44.364h44.365c4.418 0 8-3.582 8-8s-3.582-8-8-8h-52.365c-4.418 0-8 3.582-8 8v52.364c0 4.418 3.582 8 8 8zm321.312-52.364h44.364v44.364c0 4.418 3.582 8 8 8s8-3.582 8-8v-52.364c0-4.418-3.582-8-8-8h-52.364c-4.418 0-8 3.582-8 8s3.582 8 8 8zm-213.401 29.911h157.856c4.418 0 8-3.582 8-8s-3.582-8-8-8h-157.856c-4.418 0-8 3.582-8 8s3.581 8 8 8zm213.975 17.344h-270.095c-4.418 0-8 3.582-8 8s3.582 8 8 8h270.095c4.418 0 8-3.582 8-8s-3.582-8-8-8zm-152.868 133.377h-92.083c-4.418 0-8 3.582-8 8s3.582 8 8 8h92.083c4.418 0 8-3.582 8-8s-3.582-8-8-8zm0-33.344h-117.227c-4.418 0-8 3.582-8 8s3.582 8 8 8h117.227c4.418 0 8-3.582 8-8s-3.582-8-8-8zm277.903 95.002c-.42 2.38.003 5.752.846 12.47.216 1.723.457 3.641.714 5.796 1.479 12.377-5.225 23.989-16.683 28.896-.115.049-.221.094-.334.143l20.094 46.655c1.179 2.736.738 5.901-1.143 8.213-1.88 2.312-4.89 3.392-7.81 2.788l-26.794-5.486-14.421 23.239c-1.466 2.361-4.043 3.781-6.796 3.781-.198 0-.396-.007-.596-.022-2.972-.221-5.574-2.076-6.753-4.812l-17.878-41.509c-.568-.175-1.124-.346-1.652-.509-6.469-1.996-9.716-2.998-12.133-2.998-1.729 0-3.889.515-7.342 1.538l-25.056 53.817c-1.258 2.701-3.913 4.479-6.89 4.615-.122.005-.243.008-.364.008-2.84 0-5.479-1.509-6.916-3.98l-13.742-23.647-26.942 4.708c-2.936.515-5.913-.649-7.726-3.014s-2.161-5.542-.903-8.244l24.736-53.13c-1.522-.642-3.199-1.349-5.072-2.152-11.458-4.906-18.163-16.519-16.683-28.896.258-2.156.498-4.075.714-5.798.021-.165.04-.319.06-.479h-293.775c-4.418 0-8-3.582-8-8v-282.015c0-4.418 3.582-8 8-8h434.315c4.418 0 8 3.582 8 8v177.514c9.444 2.78 16.792 10.365 19.126 20.331.495 2.113.925 3.998 1.311 5.689 1.506 6.602 2.262 9.915 3.471 12.008 1.208 2.094 3.699 4.404 8.662 9.009 1.273 1.181 2.69 2.496 4.274 3.982 9.088 8.528 11.417 21.733 5.793 32.858-.979 1.938-1.861 3.658-2.654 5.203-3.088 6.025-4.639 9.049-5.058 11.43zm-469.24-4.012h285.182c-.834-1.862-2.038-4.213-3.682-7.418-.792-1.545-1.674-3.265-2.653-5.201-4.838-9.573-3.775-20.678 2.401-29.026h-54.27c-4.418 0-8-3.582-8-8s3.582-8 8-8h70.065c.201-.281.378-.555.534-.824 1.208-2.093 1.964-5.406 3.47-12.007.312-1.37.656-2.873 1.037-4.514h-75.106c-4.418 0-8-3.582-8-8s3.582-8 8-8h84.348c4.512-3.867 10.269-6.273 16.593-6.624 2.167-.121 4.098-.217 5.832-.304 6.762-.337 10.156-.506 12.427-1.332 2.271-.827 4.98-2.879 10.377-6.968 1.383-1.049 2.924-2.216 4.662-3.517 9.979-7.469 23.388-7.469 33.365 0 1.738 1.301 3.279 2.469 4.663 3.517 5.396 4.089 8.105 6.141 10.376 6.968 1.807.657 4.332.899 8.693 1.14v-167.902h-418.314zm350.883 86.543c-8.776-.359-17.001-4.865-22.054-12.593-1.188-1.817-2.237-3.441-3.179-4.9-2.219-3.436-3.768-5.833-5.057-7.538l-17.599 37.801 17.336-3.029c3.304-.573 6.611.965 8.294 3.861l8.842 15.217zm102.236 3.68-13.957-32.405c-.646.381-1.185.752-1.644 1.138-1.852 1.554-3.695 4.408-7.367 10.095-.942 1.459-1.991 3.083-3.179 4.9-4.091 6.256-10.263 10.396-17.119 11.941l8.344 19.373 9.278-14.955c1.767-2.847 5.121-4.293 8.402-3.618zm7.091-124.035c-1.559-1.464-2.954-2.758-4.207-3.92-12.323-11.433-13.11-12.797-16.85-29.187-.38-1.666-.803-3.521-1.29-5.601-1.228-5.242-5.495-8.822-10.87-9.121-2.134-.118-4.034-.213-5.74-.298-16.79-.837-18.27-1.375-31.669-11.527-1.362-1.031-2.878-2.181-4.589-3.461-4.31-3.226-9.881-3.225-14.19.001-1.709 1.279-3.226 2.428-4.587 3.46-13.4 10.152-14.88 10.69-31.67 11.527-1.706.085-3.606.18-5.739.298-5.375.299-9.643 3.88-10.871 9.122-.487 2.079-.91 3.934-1.29 5.6-2.837 12.438-3.98 16.225-9.75 22.324-.264.324-.558.622-.869.9-1.679 1.711-3.711 3.624-6.231 5.962-1.253 1.162-2.648 2.456-4.206 3.919-3.926 3.685-4.893 9.17-2.464 13.976.963 1.905 1.832 3.598 2.611 5.118 7.671 14.959 7.945 16.51 5.853 33.189-.212 1.695-.45 3.583-.703 5.705-.639 5.347 2.146 10.17 7.095 12.29 1.964.841 3.717 1.579 5.291 2.242 15.492 6.528 16.698 7.541 25.817 21.663.927 1.435 1.958 3.033 3.128 4.821 2.946 4.506 8.181 6.412 13.335 4.854 2.045-.618 3.863-1.179 5.495-1.683 8.032-2.478 12.441-3.717 16.851-3.717s8.819 1.239 16.851 3.717c1.632.504 3.45 1.064 5.495 1.683 5.154 1.56 10.388-.347 13.334-4.853 1.17-1.789 2.202-3.388 3.128-4.822 9.119-14.122 10.326-15.135 25.817-21.663 1.574-.663 3.327-1.401 5.291-2.242 4.949-2.12 7.734-6.943 7.095-12.29-.253-2.121-.49-4.009-.703-5.703-2.092-16.681-1.818-18.231 5.853-33.19.779-1.521 1.647-3.213 2.611-5.12 2.429-4.804 1.462-10.289-2.463-13.973zm-18.782 19.43c0 35.029-28.499 63.528-63.528 63.528-35.03 0-63.528-28.499-63.528-63.528s28.499-63.528 63.528-63.528 63.528 28.499 63.528 63.528zm-16 0c0-26.207-21.321-47.528-47.528-47.528s-47.528 21.321-47.528 47.528 21.321 47.528 47.528 47.528 47.528-21.321 47.528-47.528zm-25.904-23.28-32.607 29.591-10.36-10.36c-3.124-3.123-8.189-3.123-11.313 0-3.124 3.125-3.124 8.189 0 11.314l15.749 15.749c1.558 1.558 3.606 2.343 5.658 2.343 1.922 0 3.847-.688 5.375-2.076l38.251-34.713c3.272-2.969 3.518-8.028.548-11.3-2.97-3.274-8.029-3.519-11.301-.548z"></path></svg>